<svg width="143" height="14" viewBox="0 0 143 14" fill="none" xmlns="http://www.w3.org/2000/svg">
<g clip-path="url(#clip0_24_3744)">
<path d="M9.11463 8.19131C9.13858 8.90964 8.99163 9.62371 8.68513 10.2784C8.43387 10.808 8.0164 11.2475 7.49211 11.5343C6.94513 11.8218 6.32964 11.9651 5.70736 11.9499C5.08536 11.9626 4.47054 11.8194 3.92261 11.5343C3.39831 11.2475 2.98085 10.808 2.72959 10.2784C2.4347 9.6207 2.2945 8.90782 2.31917 8.19131L2.31917 0.19397L-5.24476e-05 0.19397L-5.24476e-05 8.12666C-0.0337363 9.23217 0.201657 10.3299 0.687128 11.3312C1.11663 12.1808 1.81103 12.8785 2.67233 13.3259C3.61671 13.7695 4.6528 14 5.70258 14C6.75237 14 7.78846 13.7695 8.73284 13.3259C9.59413 12.8785 10.2885 12.1808 10.718 11.3312C11.2068 10.3307 11.4455 9.23291 11.4148 8.12666L11.4148 0.19397L9.11463 0.19397L9.11463 8.19131Z" fill="black"/>
<path d="M22.9155 6.34433C22.9155 7.93272 22.9155 9.03168 22.9728 9.65041C22.9728 9.89668 22.9919 10.1183 23.03 10.3153L15.6333 0.156982L13.4286 0.156982L13.4286 13.7691H15.7001C15.7001 11.2665 15.7001 9.22557 15.7001 7.64641C15.7001 6.06726 15.7001 4.96832 15.6333 4.35882C15.6333 4.11871 15.6333 3.8971 15.5856 3.69394L22.9728 13.8061H25.1298V0.193958L22.8678 0.193958C22.906 2.70583 22.906 4.76517 22.9155 6.34433Z" fill="black"/>
<path d="M26.1987 2.22563L30.0163 2.22563L30.0163 13.8061L32.3356 13.8061V2.22563L36.1437 2.22563V0.19397L26.1987 0.19397V2.22563Z" fill="black"/>
<path d="M39.5128 0.19397L37.1936 0.19397V13.8061H39.5128V0.19397Z" fill="black"/>
<path d="M40.5722 2.22563L44.3994 2.22563V13.8061L46.7186 13.8061V2.22563L50.5172 2.22563V0.19397L40.5722 0.19397V2.22563Z" fill="black"/>
<path d="M53.8958 0.19397L51.5766 0.19397V13.8061L59.9182 13.8061V11.7744L53.8958 11.7744V0.19397Z" fill="black"/>
<path d="M61.1685 0.19397L60.968 0.19397V13.8061H61.1685H63.2873L69.7296 13.8061V11.7744L63.2873 11.7744V7.89582L68.527 7.89582V5.9288L63.2873 5.9288V2.22563L69.7296 2.22563V0.19397L63.2873 0.19397L61.1685 0.19397Z" fill="black"/>
<path d="M79.0924 1.08046C77.9558 0.456235 76.6674 0.137398 75.3606 0.156978L70.6935 0.156978V13.7691H75.3701C76.6774 13.7928 77.9669 13.4737 79.1019 12.8456C80.1342 12.2738 80.9755 11.4278 81.5261 10.4077C82.0788 9.32828 82.3663 8.13996 82.3663 6.93537C82.3663 5.73078 82.0788 4.54246 81.5261 3.46306C80.9604 2.4648 80.1174 1.63951 79.0924 1.08046V1.08046ZM79.4741 9.56727C79.1091 10.2617 78.5373 10.8343 77.8325 11.2111C77.0706 11.5969 76.2204 11.7907 75.3606 11.7744H73.0032V2.18865L75.3606 2.18865C76.2209 2.16792 77.0722 2.36191 77.8325 2.75196C78.5373 3.12881 79.1091 3.70141 79.4741 4.39579C79.8577 5.20078 80.0563 6.07663 80.0563 6.96304C80.0563 7.84946 79.8577 8.72537 79.4741 9.53035V9.56727Z" fill="black"/>
<path d="M84.103 11.5251C83.9354 11.5228 83.769 11.5526 83.6134 11.6128C83.4578 11.6731 83.3161 11.7625 83.1964 11.876C83.0677 11.9942 82.967 12.1379 82.9011 12.2973C82.8352 12.4567 82.8057 12.628 82.8146 12.7995C82.8111 13.0201 82.8706 13.2374 82.9864 13.4274C83.0963 13.617 83.2581 13.7736 83.454 13.8799C83.651 13.9907 83.8752 14.0482 84.103 14.0462C84.2803 14.0554 84.4575 14.0272 84.6224 13.9634C84.7872 13.8996 84.9357 13.8018 85.0575 13.6768C85.1778 13.5627 85.2729 13.426 85.3369 13.2752C85.4009 13.1244 85.4325 12.9625 85.4297 12.7995C85.4404 12.6287 85.4127 12.4576 85.3485 12.2982C85.2842 12.1387 85.1849 11.9947 85.0575 11.876C84.9318 11.7572 84.7822 11.6648 84.618 11.6044C84.4538 11.544 84.2785 11.517 84.103 11.5251V11.5251Z" fill="black"/>
<path d="M94.907 0.193903L89.3714 6.36276C89.3714 5.99337 89.4382 5.63317 89.4478 5.28225C89.4573 4.93132 89.4478 4.13715 89.4478 3.28755V0.193903L87.1381 0.193903V13.806H89.4478V13.6306C89.4478 11.5343 89.4478 10.0752 89.4478 9.24402C89.4478 8.56065 89.4 7.87725 89.3523 7.20311L94.7639 13.806H97.5603L91.767 6.80602L97.6462 0.175415L94.907 0.193903Z" fill="black"/>
<path d="M100.739 0.19397L98.4193 0.19397V13.8061H100.739V0.19397Z" fill="black"/>
<path d="M112.249 6.34433C112.249 7.93272 112.249 9.03168 112.306 9.65041C112.306 9.89668 112.325 10.1183 112.363 10.3153L104.967 0.156982L102.791 0.156982V13.7691H105.052C105.052 11.2665 105.052 9.22557 105.052 7.64641C105.052 6.06726 105.052 4.96832 104.986 4.35882C104.986 4.11871 104.967 3.8971 104.928 3.69394L112.344 13.7691H114.511V0.193958L112.249 0.193958C112.239 2.70583 112.239 4.76517 112.249 6.34433Z" fill="black"/>
<path d="M121.602 8.26518H127.643C127.528 8.81088 127.322 9.33482 127.033 9.81662C126.639 10.4668 126.072 11.0027 125.391 11.3681C124.643 11.7516 123.807 11.9451 122.961 11.9306C122.114 11.9161 121.286 11.6939 120.552 11.2849C119.832 10.865 119.25 10.2568 118.872 9.53035C118.477 8.74889 118.278 7.88835 118.29 7.01844C118.277 6.13533 118.49 5.26282 118.911 4.47887C119.301 3.74346 119.9 3.13144 120.638 2.71504C121.409 2.27567 122.291 2.05188 123.186 2.06859C124.027 2.05769 124.858 2.25138 125.601 2.6319C126.27 2.97102 126.839 3.47014 127.252 4.08177L128.913 2.66887C128.31 1.83704 127.49 1.17434 126.536 0.748014C125.47 0.244418 124.297 -0.0116966 123.11 -4.53863e-06C121.809 -0.0235671 120.525 0.295647 119.397 0.923478C118.336 1.52577 117.464 2.39758 116.878 3.44457C116.279 4.53529 115.966 5.75131 115.966 6.98615C115.966 8.22098 116.279 9.43701 116.878 10.5277C117.463 11.5813 118.338 12.4572 119.407 13.0581C120.521 13.6859 121.792 14.0054 123.081 13.9815C124.346 14.0004 125.591 13.6808 126.68 13.0581C127.753 12.4235 128.614 11.5034 129.161 10.4077C129.814 9.11825 130.141 7.69698 130.115 6.26118L121.631 6.26118L121.602 8.26518Z" fill="black"/>
<path d="M142.16 3.52768C141.606 2.5044 140.762 1.65536 139.726 1.08043C138.594 0.455273 137.308 0.136312 136.004 0.156947L131.328 0.156947V13.7691H136.004C137.309 13.7939 138.595 13.4746 139.726 12.8456C140.763 12.2769 141.609 11.4303 142.16 10.4076C142.713 9.32825 143 8.13992 143 6.93534C143 5.73075 142.713 4.54242 142.16 3.46303V3.52768ZM140.118 9.57648C139.753 10.2709 139.181 10.8435 138.476 11.2203C137.714 11.605 136.864 11.7987 136.004 11.7836H133.685V2.18862L136.042 2.18862C136.903 2.16872 137.754 2.36266 138.514 2.75193C139.219 3.12878 139.791 3.70137 140.156 4.39576C140.539 5.20074 140.738 6.07659 140.738 6.96301C140.738 7.84943 140.539 8.72533 140.156 9.53032L140.118 9.57648Z" fill="black"/>
</g>
<defs>
<clipPath id="clip0_24_3744">
<rect width="143" height="14" fill="white"/>
</clipPath>
</defs>
</svg>
